<svg width="32" height="32" viewBox="0 0 32 32" fill="none" xmlns="http://www.w3.org/2000/svg">
<path d="M8.85829 8.92097C10.6886 7.0752 13.2234 5.92985 16.01 5.93255C18.5792 5.93506 20.9232 6.89963 22.7011 8.48583C22.9558 8.71309 23.3646 8.69816 23.606 8.45678L26.8677 5.1951C27.1333 4.9295 27.126 4.49549 26.8499 4.24075C23.9428 1.55733 20.039 -0.0619338 15.7562 0.00181524C11.4263 0.0662545 7.50965 1.86484 4.66441 4.72709C4.34717 5.04621 4.71824 8.90961 4.71824 8.90961C4.71824 8.90961 7.07238 10.722 8.85829 8.92097Z" fill="url(#paint0_linear)"/>
<path d="M8.85822 8.92094C10.6886 7.07517 13.2233 5.92982 16.01 5.93252C18.5791 5.93503 20.9232 6.89961 22.701 8.48581C22.9557 8.71307 23.3646 8.69813 23.606 8.45675L25.4777 6.58501C25.3147 6.45901 25.1539 6.32675 24.9971 6.18783C22.5569 4.0267 19.382 2.65151 15.8576 2.68853C12.2025 2.72693 8.91945 4.21776 6.54562 6.60822C6.28604 6.86962 6.18408 8.91373 6.18408 8.91373C6.18408 8.91373 6.48865 8.88618 8.85822 8.92094Z" fill="url(#paint1_linear)"/>
<path d="M5.93319 15.909C5.90809 18.7414 7.05257 21.3064 8.91233 23.1504L7.48488 26.2309L4.71782 27.345C1.80896 24.4518 0.00629101 20.448 1.64982e-05 16.0232C-0.00625801 11.6292 1.77758 7.63045 4.66449 4.72723L8.85837 8.92112C7.07264 10.7219 5.95704 13.1897 5.93319 15.909Z" fill="url(#paint2_linear)"/>
<path d="M5.93314 15.909C5.90804 18.7413 7.05251 21.3064 8.91228 23.1504L6.61894 25.4444C4.2384 23.0802 2.74694 19.8218 2.68985 16.2152C2.63024 12.4637 4.10914 9.06228 6.54616 6.60895L8.85832 8.9211C7.07259 10.7219 5.95698 13.1897 5.93314 15.909Z" fill="url(#paint3_linear)"/>
<path d="M23.0959 23.1587C21.2613 24.9764 18.7286 26.085 15.9348 26.0673C13.1964 26.05 10.718 24.9389 8.91303 23.1497L4.71814 27.3446C7.60009 30.2107 11.5675 31.9865 15.9498 32C20.341 32.0135 24.3347 30.2077 27.2401 27.303L26.0412 24.7395L23.0959 23.1587Z" fill="url(#paint4_linear)"/>
<path d="M23.0958 23.1584C21.2611 24.9763 18.7286 26.085 15.9348 26.0675C13.1965 26.0501 10.718 24.9391 8.91311 23.1497L6.61902 25.4438C9.02548 27.8345 12.3402 29.312 16 29.312C19.66 29.312 22.9746 27.8344 25.3811 25.4438L23.0958 23.1584Z" fill="url(#paint5_linear)"/>
<path d="M32 14.3568C32 14.0414 31.7443 13.7856 31.4288 13.7856H16.5357C16.2531 13.7856 16.024 14.0147 16.024 14.2973V19.2216C16.024 19.5041 16.2531 19.7332 16.5357 19.7332H23.8091C24.5583 19.7332 25.0235 20.5508 24.6382 21.1932C24.2081 21.9102 23.6907 22.5674 23.1018 23.1518C23.0996 23.1541 23.0981 23.1563 23.0959 23.1586L27.2408 27.3035C27.4365 27.1078 27.6351 26.912 27.8352 26.7156C30.425 23.8435 32 20.033 32 15.8761V14.3568Z" fill="url(#paint6_linear)"/>
<path d="M28.6394 20.1901C29.2249 18.4207 27.9135 16.5961 26.05 16.5961H16.0242V19.2216C16.0242 19.5041 16.2533 19.7332 16.5358 19.7332H23.8093C24.5584 19.7332 25.0236 20.5508 24.6383 21.1932C24.2096 21.9079 23.6941 22.563 23.1076 23.1461C23.1035 23.1503 23.1002 23.1543 23.096 23.1586L25.3812 25.4437C26.5959 24.2384 27.5785 22.7997 28.258 21.2009C28.3979 20.8703 28.5253 20.5333 28.6394 20.1901Z" fill="url(#paint7_linear)"/>
<defs>
<linearGradient id="paint0_linear" x1="4.53616" y1="4.85923" x2="27.062" y2="4.85923" gradientUnits="userSpaceOnUse">
<stop stop-color="#FF637B"/>
<stop offset="1" stop-color="#F90217"/>
</linearGradient>
<linearGradient id="paint1_linear" x1="21.5951" y1="13.5137" x2="7.44269" y2="-0.638778" gradientUnits="userSpaceOnUse">
<stop stop-color="#FF637B"/>
<stop offset="1" stop-color="#F90217"/>
</linearGradient>
<linearGradient id="paint2_linear" x1="0.380503" y1="11.7255" x2="9.08124" y2="20.4262" gradientUnits="userSpaceOnUse">
<stop stop-color="#FFD833"/>
<stop offset="1" stop-color="#F2B631"/>
</linearGradient>
<linearGradient id="paint3_linear" x1="11.0583" y1="20.5025" x2="1.76166" y2="11.2058" gradientUnits="userSpaceOnUse">
<stop stop-color="#FFD833"/>
<stop offset="1" stop-color="#F2B631"/>
</linearGradient>
<linearGradient id="paint4_linear" x1="14.6218" y1="25.2841" x2="19.4764" y2="30.1387" gradientUnits="userSpaceOnUse">
<stop stop-color="#28A265"/>
<stop offset="1" stop-color="#28895E"/>
</linearGradient>
<linearGradient id="paint5_linear" x1="22.2018" y1="31.6456" x2="8.15919" y2="17.603" gradientUnits="userSpaceOnUse">
<stop stop-color="#28A265"/>
<stop offset="1" stop-color="#28895E"/>
</linearGradient>
<linearGradient id="paint6_linear" x1="22.8382" y1="15.603" x2="30.2845" y2="23.0493" gradientUnits="userSpaceOnUse">
<stop stop-color="#7FAEF4"/>
<stop offset="1" stop-color="#4C8DF1"/>
</linearGradient>
<linearGradient id="paint7_linear" x1="29.0744" y1="25.4869" x2="19.4075" y2="15.82" gradientUnits="userSpaceOnUse">
<stop stop-color="#7FAEF4"/>
<stop offset="1" stop-color="#4C8DF1"/>
</linearGradient>
</defs>
</svg>
