<svg xmlns="http://www.w3.org/2000/svg" width="285" height="41" viewBox="0 0 285 41" fill="none">
<path d="M66.322 8.022C68.394 8.022 70.27 8.512 71.95 9.492C73.658 10.444 75.002 11.816 75.982 13.608C76.99 15.372 77.494 17.43 77.494 19.782C77.494 22.134 76.99 24.206 75.982 25.998C75.002 27.762 73.658 29.134 71.95 30.114C70.27 31.066 68.394 31.542 66.322 31.542C63.662 31.542 61.548 30.744 59.98 29.148V39.312H52V8.4H59.602V10.668C61.086 8.904 63.326 8.022 66.322 8.022ZM64.642 25.2C66.042 25.2 67.19 24.724 68.086 23.772C68.982 22.792 69.43 21.462 69.43 19.782C69.43 18.102 68.982 16.786 68.086 15.834C67.19 14.854 66.042 14.364 64.642 14.364C63.242 14.364 62.094 14.854 61.198 15.834C60.302 16.786 59.854 18.102 59.854 19.782C59.854 21.462 60.302 22.792 61.198 23.772C62.094 24.724 63.242 25.2 64.642 25.2Z" fill="white"/>
<path d="M88.8051 11.13C89.6171 10.094 90.6671 9.324 91.9551 8.82C93.2711 8.288 94.7691 8.022 96.4491 8.022V15.204C95.7211 15.12 95.1191 15.078 94.6431 15.078C92.9351 15.078 91.5911 15.54 90.6111 16.464C89.6591 17.388 89.1831 18.802 89.1831 20.706V31.164H81.2031V8.4H88.8051V11.13Z" fill="white"/>

<path d="M110.961 31.542C108.525 31.542 106.327 31.038 104.367 30.03C102.407 29.022 100.867 27.622 99.7471 25.83C98.6551 24.038 98.1091 22.008 98.1091 19.74C98.1091 17.5 98.6551 15.484 99.7471 13.692C100.867 11.9 102.393 10.514 104.325 9.534C106.285 8.526 108.497 8.022 110.961 8.022C113.425 8.022 115.637 8.526 117.597 9.534C119.557 10.514 121.083 11.9 122.175 13.692C123.267 15.456 123.813 17.472 123.813 19.74C123.813 22.008 123.267 24.038 122.175 25.83C121.083 27.622 119.557 29.022 117.597 30.03C115.637 31.038 113.425 31.542 110.961 31.542ZM110.961 25.2C112.361 25.2 113.509 24.724 114.405 23.772C115.301 22.792 115.749 21.448 115.749 19.74C115.749 18.06 115.301 16.744 114.405 15.792C113.509 14.84 112.361 14.364 110.961 14.364C109.561 14.364 108.413 14.84 107.517 15.792C106.621 16.744 106.173 18.06 106.173 19.74C106.173 21.448 106.621 22.792 107.517 23.772C108.413 24.724 109.561 25.2 110.961 25.2Z" fill="white"/>
<path d="M151.702 0V31.164H144.1V28.896C142.616 30.66 140.39 31.542 137.422 31.542C135.35 31.542 133.46 31.066 131.752 30.114C130.044 29.134 128.686 27.748 127.678 25.956C126.698 24.164 126.208 22.092 126.208 19.74C126.208 17.388 126.698 15.33 127.678 13.566C128.686 11.774 130.044 10.402 131.752 9.45C133.46 8.498 135.35 8.022 137.422 8.022C140.138 8.022 142.238 8.806 143.722 10.374V0H151.702ZM139.102 25.2C140.474 25.2 141.608 24.724 142.504 23.772C143.4 22.792 143.848 21.448 143.848 19.74C143.848 18.06 143.4 16.744 142.504 15.792C141.636 14.84 140.502 14.364 139.102 14.364C137.702 14.364 136.554 14.84 135.658 15.792C134.762 16.744 134.314 18.06 134.314 19.74C134.314 21.448 134.762 22.792 135.658 23.772C136.554 24.724 137.702 25.2 139.102 25.2Z" fill="white"/>
<path d="M179.696 19.802C179.696 19.858 179.654 20.516 179.57 21.776H163.022C163.358 22.952 164.002 23.862 164.954 24.506C165.934 25.122 167.152 25.43 168.608 25.43C169.7 25.43 170.638 25.276 171.422 24.968C172.234 24.66 173.046 24.156 173.858 23.456L178.058 27.824C175.846 30.288 172.612 31.52 168.356 31.52C165.696 31.52 163.358 31.016 161.342 30.008C159.326 29 157.758 27.6 156.638 25.808C155.546 24.016 155 21.986 155 19.718C155 17.478 155.532 15.476 156.596 13.712C157.688 11.92 159.186 10.52 161.09 9.512C162.994 8.504 165.136 8 167.516 8C169.784 8 171.842 8.476 173.69 9.428C175.538 10.352 176.994 11.71 178.058 13.502C179.15 15.266 179.696 17.366 179.696 19.802ZM167.558 13.67C166.326 13.67 165.29 14.02 164.45 14.72C163.638 15.42 163.12 16.372 162.896 17.576H172.22C171.996 16.372 171.464 15.42 170.624 14.72C169.812 14.02 168.79 13.67 167.558 13.67Z" fill="white"/>
<path d="M192.462 8C196.242 8 199.126 8.868 201.114 10.604C203.102 12.312 204.096 14.944 204.096 18.5V31.142H196.662V28.202C195.514 30.414 193.274 31.52 189.942 31.52C188.178 31.52 186.652 31.212 185.364 30.596C184.076 29.98 183.096 29.154 182.424 28.118C181.78 27.054 181.458 25.85 181.458 24.506C181.458 22.35 182.284 20.684 183.936 19.508C185.588 18.304 188.136 17.702 191.58 17.702H196.116C195.976 15.294 194.366 14.09 191.286 14.09C190.194 14.09 189.088 14.272 187.968 14.636C186.848 14.972 185.896 15.448 185.112 16.064L182.424 10.646C183.684 9.806 185.21 9.162 187.002 8.714C188.822 8.238 190.642 8 192.462 8ZM192.168 26.48C193.092 26.48 193.904 26.256 194.604 25.808C195.304 25.36 195.808 24.702 196.116 23.834V21.86H192.672C190.348 21.86 189.186 22.63 189.186 24.17C189.186 24.87 189.452 25.43 189.984 25.85C190.516 26.27 191.244 26.48 192.168 26.48Z" fill="white"/>
<path d="M217.407 31.52C215.503 31.52 213.627 31.31 211.779 30.89C209.931 30.442 208.447 29.868 207.327 29.168L209.721 23.708C210.757 24.352 211.989 24.87 213.417 25.262C214.845 25.626 216.259 25.808 217.659 25.808C218.947 25.808 219.857 25.682 220.389 25.43C220.949 25.15 221.229 24.758 221.229 24.254C221.229 23.75 220.893 23.4 220.221 23.204C219.577 22.98 218.541 22.77 217.113 22.574C215.293 22.35 213.739 22.056 212.451 21.692C211.191 21.328 210.099 20.656 209.175 19.676C208.251 18.696 207.789 17.324 207.789 15.56C207.789 14.104 208.223 12.816 209.091 11.696C209.959 10.548 211.219 9.652 212.871 9.008C214.551 8.336 216.553 8 218.877 8C220.529 8 222.167 8.168 223.791 8.504C225.415 8.84 226.773 9.316 227.865 9.932L225.471 15.35C223.455 14.23 221.271 13.67 218.919 13.67C217.659 13.67 216.735 13.824 216.147 14.132C215.559 14.412 215.265 14.79 215.265 15.266C215.265 15.798 215.587 16.176 216.231 16.4C216.875 16.596 217.939 16.806 219.423 17.03C221.299 17.31 222.853 17.632 224.085 17.996C225.317 18.36 226.381 19.032 227.277 20.012C228.201 20.964 228.663 22.308 228.663 24.044C228.663 25.472 228.229 26.76 227.361 27.908C226.493 29.028 225.205 29.91 223.497 30.554C221.817 31.198 219.787 31.52 217.407 31.52Z" fill="white"/>
<path d="M255.674 8.378L245.846 32.066C244.698 34.866 243.298 36.826 241.646 37.946C239.994 39.094 237.978 39.668 235.598 39.668C234.394 39.668 233.176 39.472 231.944 39.08C230.74 38.716 229.76 38.226 229.004 37.61L231.776 32.024C232.224 32.444 232.756 32.766 233.372 32.99C234.016 33.242 234.66 33.368 235.304 33.368C236.06 33.368 236.676 33.214 237.152 32.906C237.656 32.598 238.076 32.108 238.412 31.436L228.668 8.378H236.858L242.444 22.28L248.072 8.378H255.674Z" fill="white"/>



<path d="M29.0467 0.253764C23.922 -0.728866 18.6076 1.22611 14.7538 4.66788C12.8525 6.36562 11.52 8.55725 9.62899 10.2859C7.73796 12.0145 5.41644 13.0537 3.45365 14.6588C-4.51537 21.1874 2.59269 32.9224 11.7507 37.7892C23.6042 44.1069 37.0619 37.5526 42.2174 25.8948C46.7733 15.5849 40.6031 2.45568 29.0467 0.253764ZM35.8217 26.2755C33.9611 30.8136 30.3176 34.3799 25.7515 36.1326C21.7776 37.6416 17.3558 37.4102 13.5597 35.4947C8.87053 33.1642 5.1807 28.6626 4.5811 24.5263C4.17496 22.0831 5.04789 19.6018 6.89237 17.9565C7.8258 16.9945 8.85628 16.1324 9.96723 15.3842C10.5463 14.9623 11.1511 14.5302 11.7097 14.0723C12.4784 13.3675 13.7954 12.2048 14.9639 11.181L16.7883 9.57075C19.7043 6.99841 23.4505 5.88202 26.8738 6.59199C30.2972 7.30195 33.1261 9.59132 35.0017 13.1823C37.1746 17.3443 37.4975 22.4838 35.8217 26.2755Z" fill="url(#paint0_linear)"/>
<path d="M24.3421 14.7464H24.2909C22.7581 14.4056 21.1557 14.827 19.9861 15.8782C19.1624 16.4956 18.3071 17.0691 17.4237 17.5966C16.4295 18.2294 15.1893 19.0216 14.9177 19.2686L14.8255 19.3406C13.6519 20.1329 12.3656 21.1104 11.6788 22.376L11.5968 22.4943C10.786 23.4789 10.5187 24.8051 10.8845 26.0287C11.4482 28.2409 13.5904 30.4994 16.0913 31.518C18.1796 32.4313 20.5523 32.4313 22.6407 31.518C25.0332 30.4595 26.8865 28.4594 27.7655 25.9875V25.9361C28.6726 23.8782 28.278 19.7625 26.9097 17.1901C26.4228 16.1818 25.5618 14.9779 24.3421 14.7464ZM21.626 26.4042C21.4536 28.0633 20.1209 29.3595 18.4635 29.4799C16.8062 29.6003 15.3014 28.5103 14.8928 26.8934C14.4843 25.2765 15.2895 23.5982 16.8036 22.911L21.8669 20.6062C21.9442 20.5703 22.0349 20.5791 22.1039 20.6292C22.173 20.6794 22.2097 20.763 22.2 20.848L21.626 26.4042Z" fill="url(#paint1_linear)"/>
<path d="M26.6485 7.62614C23.5736 6.97791 20.1195 8.00684 17.4239 10.3682L15.5944 11.9837C14.431 13.0126 13.1191 14.1599 12.335 14.875C11.7252 15.3894 11.1153 15.8164 10.5208 16.2434C9.45877 16.9518 8.47294 17.769 7.57922 18.682C5.96115 20.096 5.19402 22.2543 5.55494 24.3772C6.14941 28.1945 9.60863 32.3823 14.0159 34.5533C17.5568 36.3489 21.6851 36.5728 25.398 35.1707C29.7012 33.5131 33.1317 30.1456 34.8789 25.864C36.4163 22.3399 36.1293 17.5502 34.0948 13.6557C32.3677 10.3528 29.7234 8.22807 26.6485 7.62614ZM29.2109 26.5225C28.188 29.3809 26.0433 31.6938 23.2764 32.9224C20.8071 34.0164 17.9953 34.0276 15.5175 32.9533C12.5605 31.7443 10.1006 29.1154 9.41389 26.4196C8.94201 24.7517 9.30287 22.9576 10.3825 21.6042C11.2178 20.0917 12.6476 18.9907 13.9698 18.1161C14.8292 17.4729 15.7203 16.8737 16.6398 16.3206C17.5776 15.7238 18.7461 14.9779 19.0075 14.7464C20.5448 13.3806 22.6386 12.8321 24.6447 13.2698C26.0796 13.5528 27.3352 14.6589 28.2782 16.4698C29.8873 19.5 30.2973 24.017 29.2109 26.5225Z" fill="url(#paint2_linear)"/>
<defs>
<linearGradient id="paint0_linear" x1="21.8622" y1="0" x2="21.8622" y2="40.2446" gradientUnits="userSpaceOnUse">
<stop stop-color="#FFECF3"/>
<stop offset="0.0001" stop-color="#FFEBF2"/>
<stop offset="1" stop-color="#FFB5CC"/>
</linearGradient>
<linearGradient id="paint1_linear" x1="19.4891" y1="14.6306" x2="19.4891" y2="32.203" gradientUnits="userSpaceOnUse">
<stop stop-color="#FFECF3"/>
<stop offset="0.0001" stop-color="#FFEBF2"/>
<stop offset="1" stop-color="#FFB5CC"/>
</linearGradient>
<linearGradient id="paint2_linear" x1="20.6618" y1="7.43567" x2="20.6618" y2="36.0818" gradientUnits="userSpaceOnUse">
<stop stop-color="#FFECF3"/>
<stop offset="0.0001" stop-color="#FFEBF2"/>
<stop offset="1" stop-color="#FFB5CC"/>
</linearGradient>
</defs>
</svg>